<?xml version="1.0" encoding="utf-8"?>
<!-- Generator: Adobe Illustrator 22.1.0, SVG Export Plug-In . SVG Version: 6.00 Build 0)  -->
<svg version="1.1" id="Layer_1" xmlns="http://www.w3.org/2000/svg" xmlns:xlink="http://www.w3.org/1999/xlink" x="0px" y="0px"
	 viewBox="0 0 133.9 55.8" style="enable-background:new 0 0 133.9 55.8;" xml:space="preserve">
<style type="text/css">
	.st0{fill:none;stroke: url(#pop);stroke-width:1.415;stroke-miterlimit:10;}
	.st2{fill: url(#pop);}
	.st1{fill: #123;}
</style>
<defs>
	<filter id="red-sunset-with-purple" x="-10%" y="-10%" width="120%" height="120%" filterUnits="objectBoundingBox" primitiveUnits="userSpaceOnUse" color-interpolation-filters="sRGB">
		<feColorMatrix type="matrix" in="SourceGraphic" result="colormatrix" values="1 0 0 0 0
																					 1 0 0 0 0
																					 1 0 0 0 0
																					 0 0 0 1 0" />
		<feComponentTransfer in="colormatrix" result="componentTransfer">
			<feFuncR type="table" tableValues="0.33 1 1"/>
			<feFuncG type="table" tableValues="0.2 0.27 0.8"/>
			<feFuncB type="table" tableValues="0.53 0.4 0.2"/>
			<feFuncA type="table" tableValues="0 1"/>
		</feComponentTransfer>
		<feBlend mode="normal" in="componentTransfer" in2="SourceGraphic" result="blend"/>
	</filter>

	<linearGradient id="pop" x1="0%" y1="100%" x2="100%" y2="0%">
		<stop offset="10%" style="stop-color: #f46" />
		<stop offset="50%" style="stop-color: #fc3" />
		<stop offset="90%" style="stop-color: #538" />
	</linearGradient>
</defs>
<g id="logo">
	<g>
		<path class="st1" d="M35.7,22.5c0.6,0.9,0.8,1.6,0.8,2.8c0,4.2-3.3,7.1-8.2,7.1c-0.5,0-0.8,0-1.4-0.1c-1.2,0.9-1.8,1.5-1.8,2
			c0,0.4,0.3,0.5,1.2,0.5H33c3.6,0,5.4,1.5,5.4,4.5c0,4.6-4.5,8-10.7,8c-4.6,0-7.7-1.9-7.7-4.7c0-1.4,0.8-2.7,3-4.5
			c-1.8-0.7-2.6-1.4-2.6-2.5c0-1.1,0.6-1.9,2.4-3.1c0.2-0.2,0.6-0.4,1.2-0.8c-0.8-0.6-1.2-0.9-1.6-1.4c-1.1-1.3-1.6-2.8-1.6-4.6
			c0-4.4,3-7.2,8-7.2c1.4,0,2.1,0.2,3.9,0.8h2.8l3.8-0.2v3.6H35.7z M31.5,38.6h-5.8c-0.2,0.3-0.3,0.5-0.4,0.6
			c-0.6,0.9-0.9,1.6-0.9,2.1c0,1.2,1.7,2.1,3.9,2.1c1.4,0,3-0.5,4.1-1.4c0.9-0.7,1.4-1.5,1.4-2.2C33.8,39,33.1,38.6,31.5,38.6z
			 M28.6,21.8c-1.7,0-3,1.6-3,3.5c0,1.9,1.4,3.4,3.1,3.4c1.7,0,3.1-1.5,3.1-3.4C31.7,23.4,30.3,21.8,28.6,21.8z"/>
		<path class="st1" d="M51.2,24.6c-0.5-0.4-0.9-0.6-1.4-0.6c-0.8,0-1.6,0.5-2.3,1.4c-0.9,1.1-1.3,2.2-1.3,3.6v8.5h-4.8V18.9h4.1
			l0.2,4.1c1.8-3.2,3-4.4,4.4-4.4c1,0,1.8,0.4,2.6,1.3L51.2,24.6z"/>
		<path class="st1" d="M68.5,37.7h-1c-2.4,0-3.2-0.4-4-2c-1.8,1.6-3.3,2.3-5.2,2.3c-3.2,0-4.9-2.1-4.9-5c0-0.8,0-1,0.3-1.9
			c0.6-1.7,1.3-2.6,4-3.4l5.3-1.5v-1.6c0-2-0.7-2.9-2.3-2.9c-1.4,0-2.6,0.8-2.6,1.7c0,0.2,0,0.2,0.1,0.5l-4.6,1
			c-0.2-0.6-0.2-0.8-0.2-1.3c0-3.3,2.9-5.2,7.9-5.2c4.4,0,6.5,1.8,6.5,5.9V32c0,1.7,0.2,2,1.5,2.1L68.5,37.7z M63,29.2l-4.8,1.6
			c-0.3,0.7-0.4,1.1-0.4,1.6c0,1.2,0.7,1.9,1.9,1.9c0.6,0,1.3-0.2,2-0.6c0.3-0.2,0.6-0.3,1.2-0.8V29.2z"/>
		<path class="st1" d="M83.5,37.5V22.4h-5.8v15.1H73V22.4h-3v-3l3-0.5v-2.4c0-5.5,3-8.7,8.1-8.7c1.1,0,2.1,0.2,3,0.4
			c1.4,0.4,2.3,0.8,4.2,2.1l-2.2,3.8c-2-1.8-3-2.3-4.6-2.3c-1.2,0-2.2,0.4-2.8,1.2c-0.7,0.9-0.9,2-0.9,4.8v1.1h10.6v18.6H83.5z"/>
		<path class="st1" d="M105,36.9c-1.7,0.7-3.5,1.1-5.2,1.1c-5.5,0-9.1-3.8-9.1-9.7c0-6,3.8-10.1,9.5-10.1c1,0,2,0.1,2.9,0.3
			c1.3,0.3,1.9,0.6,3.4,1.5l-2.2,3.6c-1.3-1.1-2.2-1.4-3.6-1.4c-3,0-5.2,2.5-5.2,6c0,3.3,1.9,5.6,4.7,5.6c1.5,0,2.7-0.4,4.6-1.6
			l1.7,3.9C105.8,36.5,105.3,36.8,105,36.9z"/>
		<path class="st1" d="M119.1,37.5l-5.8-9.6v9.6h-4.8V8.3h4.8v18.6l5.8-8.1h5.4l-6.7,8.6l6.8,10.1H119.1z"/>
		<path class="st1" d="M129.7,16.7c-1.5,0-2.7-1.2-2.7-2.8s1.2-2.8,2.7-2.8c1.5,0,2.7,1.2,2.7,2.8S131.2,16.7,129.7,16.7z
			 M127.3,37.5V18.9h4.8v18.6H127.3z"/>
		<g>
			<path class="st1" d="M43.5,42.5l0,4.9h5.2V49h-5.2l0,6.4h-1.8l0-14.4l8.1,0v1.5H43.5z"/>
			<path class="st1" d="M60.5,55.4L59,51.2h-5.8l-1.5,4.2h-1.9l5.4-14.8l1.9,0l5.3,14.8H60.5z M56.1,43l-2.4,6.6l4.7,0L56.1,43z"/>
			<path class="st1" d="M64.9,55.4l0-14.4h1.8l0,14.4H64.9z M72.6,55.4l-5.8-7.3l5.6-7.1h2l-5.6,7l5.9,7.4H72.6z"/>
			<path class="st1" d="M86.6,54.5c-1.1,0.9-2.4,1.3-3.9,1.3c-1.5,0-2.9-0.5-4-1.3c-1.2-1-1.7-2.1-1.7-4l0-9.5h1.8l0,8.9
				c0,1.8,0.1,2.3,0.8,3.1c0.7,0.8,1.8,1.2,3,1.2c1.2,0,2.3-0.4,3-1.2c0.7-0.8,0.8-1.3,0.8-3.1l0-8.9h1.8l0,9.5
				C88.2,52.4,87.8,53.5,86.6,54.5z"/>
			<path class="st1" d="M92.6,55.4l0-14.4h1.8l0,12.9l6.4,0v1.5H92.6z"/>
			<path class="st1" d="M105.6,42.5l0,12.9h-1.8l0-12.9H99l0-1.5h11.4v1.5L105.6,42.5z"/>
			<path class="st1" d="M112.9,55.4l0-14.4l8.1,0v1.5h-6.3v4.8h5.2l0,1.5h-5.2l0,5.1h6.5l0,1.5L112.9,55.4z"/>
			<path class="st1" d="M129.1,42.5l0,12.9h-1.8l0-12.9h-4.8V41h11.4v1.5L129.1,42.5z"/>
		</g>
	</g>
	<g>
		<polyline class="st0" points="17,36.5 0.7,36.5 0.7,0.7 36.5,0.7 36.5,16 		"/>
		<circle class="st2" cx="27.5" cy="10.1" r="4.7"/>
	</g>
	<polygon class="st1" points="101,16.7 97.5,16.7 93.1,12.1 97.5,12.1 99.3,14.4 101,12.1 105.3,12.1 	"/>
</g>
</svg>
